<svg aria-hidden="true" style="position: absolute; width: 0; height: 0; overflow: hidden;" version="1.1"
     xmlns="http://www.w3.org/2000/svg" xmlns:xlink="http://www.w3.org/1999/xlink">
    <defs>
        <symbol id="icon-menu" viewBox="0 0 32 32">
            <path d="M29.333 24.007c0 0.733-0.595 1.327-1.327 1.327h-10.68c-0.733 0-1.327-0.594-1.327-1.327s0.594-1.327 1.327-1.327h10.68c0.733 0 1.327 0.593 1.327 1.327zM29.333 16c0 0.733-0.595 1.327-1.327 1.327h-24.013c-0.733 0-1.327-0.594-1.327-1.327s0.594-1.327 1.327-1.327h24.013c0.733 0 1.327 0.595 1.327 1.327zM28.007 9.32c0.733 0 1.327-0.594 1.327-1.327s-0.594-1.327-1.327-1.327h-16.013c-0.733 0-1.327 0.594-1.327 1.327s0.594 1.327 1.327 1.327h16.013z"></path>
        </symbol>
        <symbol id="icon-close" viewBox="0 0 24 24">
            <path stroke-linejoin="miter" stroke-linecap="round" stroke-miterlimit="4" stroke-width="2" d="M9 6l6 6 6-6M9 18l6-6 6 6"></path>
        </symbol>
        <symbol id="icon-medical" viewBox="0 0 53 32">
            <path d="M26.351 0.569c-0.421 0.19-0.833 0.652-0.94 1.056-0.058 0.19-0.091 1.361-0.091 2.928v2.623h-4.404c-2.548 0-4.586 0.033-4.841 0.082-0.569 0.107-1.419 0.454-1.872 0.775-0.297 0.206-1.443 1.534-2.614 3.027-0.132 0.173-0.487 0.602-0.784 0.957-0.289 0.355-0.825 1.014-1.196 1.46-1.014 1.254-1.897 1.864-3.34 2.309-4.462 1.361-4.313 1.303-4.858 1.814-0.775 0.726-0.75 0.569-0.75 4.569 0 2.738 0.025 3.546 0.107 3.753 0.132 0.313 0.718 0.858 0.981 0.924 0.107 0.025 0.693 0.033 1.303 0.025l1.113-0.025 0.025-0.289c0.099-1.41 0.61-2.507 1.666-3.596 0.759-0.792 1.905-1.377 2.961-1.526 2.557-0.363 4.808 0.792 5.897 3.002 0.346 0.709 0.627 1.715 0.627 2.243v0.206l18.755-0.041 0.099-0.701c0.322-2.21 1.872-4.107 3.918-4.767 1.435-0.47 2.771-0.445 4.173 0.082 1.056 0.388 2.309 1.501 2.895 2.557 0.355 0.643 0.685 1.641 0.751 2.293l0.050 0.536 3.241 0.025 3.233 0.017-0.017-12.643-0.025-12.643-0.231-0.346c-0.124-0.19-0.379-0.445-0.569-0.569l-0.346-0.231-12.289-0.017c-11.753-0.025-12.313-0.017-12.627 0.132zM42.194 5.757c0.305 0.247 0.363 0.47 0.363 1.452 0 0.52 0.025 0.998 0.050 1.072 0.041 0.107 0.206 0.132 0.973 0.132 1.146 0 1.493 0.091 1.699 0.437 0.148 0.239 0.165 0.429 0.165 2.12 0 1.32-0.033 1.913-0.107 2.062-0.19 0.379-0.569 0.495-1.674 0.495-0.841 0-1.014 0.025-1.056 0.132-0.025 0.074-0.050 0.553-0.050 1.072 0 1.006-0.091 1.344-0.404 1.518-0.099 0.049-0.94 0.082-2.128 0.082-1.946 0-1.963 0-2.21-0.198l-0.247-0.198-0.025-1.023c-0.033-1.526 0.074-1.386-1.097-1.386-1.781 0-1.806-0.033-1.806-2.515 0-1.922 0.058-2.235 0.429-2.441 0.115-0.066 0.619-0.124 1.303-0.157l1.113-0.041 0.050-1.196c0.025-0.66 0.058-1.204 0.058-1.221 0.008-0.008 0.14-0.091 0.289-0.181 0.239-0.148 0.412-0.165 2.202-0.165 1.715 0 1.955 0.016 2.111 0.148zM22.416 9.592c0.148 0.082 0.346 0.264 0.429 0.412 0.157 0.247 0.165 0.429 0.165 2.887 0 2.977 0 2.977-0.619 3.274l-0.379 0.181-4.841-0.033c-4.396-0.025-4.866-0.041-5.105-0.173-0.421-0.223-0.379-0.553 0.14-1.221 0.231-0.289 0.652-0.825 0.94-1.188 0.841-1.072 1.798-2.318 2.136-2.779 0.429-0.602 0.701-0.874 1.089-1.105 0.676-0.396 1.056-0.437 3.505-0.421 2.004 0.017 2.301 0.033 2.54 0.165z"></path>
            <path d="M38.944 22.227c-2.606 0.594-4.231 3.241-3.571 5.823 0.256 0.99 0.553 1.534 1.245 2.227 1.287 1.287 2.977 1.748 4.751 1.278 2.021-0.536 3.497-2.474 3.497-4.602 0-0.874-0.124-1.394-0.52-2.21-0.544-1.113-1.526-1.988-2.697-2.384-0.693-0.239-1.971-0.305-2.705-0.132z"></path>
            <path d="M9.196 22.763c-1.328 0.165-2.705 1.064-3.332 2.186-0.437 0.775-0.602 1.386-0.594 2.268 0 1.353 0.47 2.433 1.435 3.324 0.635 0.586 1.303 0.932 2.144 1.089 0.816 0.157 1.064 0.157 1.856-0.008 1.344-0.272 2.45-1.13 3.052-2.359 0.544-1.113 0.643-2.004 0.346-3.151-0.561-2.194-2.664-3.629-4.907-3.348z"></path>
        </symbol>
        <symbol id="icon-dayli" viewBox="0 0 31 32">
            <path d="M14.675 1.010c-0.518 0.032-1.483 0.101-2.146 0.158-0.656 0.050-1.641 0.126-2.178 0.158s-1.591 0.107-2.335 0.158c-1.647 0.114-4.027 0.126-4.475 0.019-0.177-0.038-0.341-0.057-0.36-0.032-0.019 0.019-0.12 1.155-0.221 2.518-0.36 4.98-1.048 14.334-1.098 14.883-0.057 0.694-0.404 5.51-0.505 6.974-0.234 3.56-0.227 3.396-0.139 3.484 0.082 0.088 0.36 0.17 1.811 0.549 0.467 0.12 1.18 0.309 1.578 0.417s0.966 0.246 1.262 0.309c0.297 0.063 0.978 0.24 1.515 0.385l0.978 0.265 1.199-0.076c0.663-0.038 2.196-0.17 3.408-0.29 1.218-0.12 2.537-0.24 2.935-0.278 1.666-0.133 2.367-0.196 3.566-0.316 1.174-0.114 2.676-0.259 6.848-0.663 0.921-0.088 2.247-0.215 2.948-0.278s1.3-0.139 1.338-0.158c0.088-0.057 0.088-0.385 0.006-1.237-0.057-0.625-0.189-2.291-0.316-4.039-0.050-0.72-0.139-1.906-0.316-4.166-0.038-0.467-0.095-1.18-0.126-1.578-0.038-0.398-0.095-1.281-0.126-1.957-0.038-0.675-0.151-2.297-0.252-3.598-0.095-1.3-0.316-4.172-0.48-6.375-0.208-2.815-0.322-4.052-0.385-4.153-0.057-0.095-0.145-0.139-0.271-0.139-0.101 0-0.934-0.126-1.843-0.284-1.578-0.265-2.323-0.353-4.816-0.574-1.275-0.114-5.63-0.164-7.006-0.088zM27.538 3.181c0.057 0.057 0.107 0.398 0.158 1.054 0.101 1.281 0.341 4.469 0.581 7.631 0.246 3.232 0.41 5.428 0.537 7.037 0.189 2.455 0.221 2.922 0.347 4.544 0.069 0.903 0.17 2.177 0.221 2.84 0.12 1.559 0.12 1.837 0 1.887-0.088 0.032-2.329 0.265-4.039 0.417-0.347 0.032-2.121 0.202-3.945 0.379-3.288 0.316-5.176 0.492-8.268 0.789-0.884 0.088-1.881 0.183-2.209 0.221-1.237 0.126-1.685 0.145-1.729 0.069-0.044-0.069-0.101-4.69-0.227-18.992-0.057-5.908-0.050-7.744 0.006-7.814 0.063-0.076 0.909-0.088 5.479-0.107 2.973-0.006 7.113-0.019 9.202-0.032 3.181-0.013 3.812 0 3.888 0.076z"></path>
            <path d="M14.492 3.913c-0.101 0.032-0.265 0.133-0.36 0.227-0.593 0.568-0.581 1.723 0.025 2.285 0.189 0.177 0.562 0.278 0.839 0.227 0.133-0.025 0.221-0.006 0.252 0.051 0.032 0.044 0.057 1.231 0.057 2.638 0.006 2.55 0.032 2.96 0.259 4.103 0.252 1.256 0.789 2.26 1.521 2.853 1.067 0.858 2.891 0.959 4.33 0.227 0.461-0.227 1.199-0.94 1.654-1.597 0.612-0.89 1.149-2.297 1.395-3.686 0.133-0.757 0.183-2.588 0.095-3.572-0.063-0.732-0.095-0.871-0.29-1.275-0.17-0.341-0.322-0.537-0.65-0.833-0.328-0.284-0.454-0.442-0.511-0.644-0.221-0.738-0.776-1.098-1.471-0.947-0.328 0.076-0.745 0.492-0.858 0.871-0.227 0.751 0.101 1.591 0.713 1.818 0.278 0.107 0.341 0.107 1.041-0.006 0.29-0.044 0.417 0.088 0.555 0.587 0.151 0.555 0.145 2.992-0.013 3.774-0.164 0.827-0.511 1.862-0.877 2.619-0.398 0.82-0.884 1.332-1.616 1.692-0.448 0.221-0.505 0.234-1.073 0.234-0.53 0-0.656-0.019-0.991-0.177-0.461-0.215-1.023-0.757-1.243-1.212-0.473-0.953-0.562-1.799-0.543-5.333 0.013-3.099-0.013-3.301-0.486-3.869-0.082-0.095-0.196-0.278-0.252-0.398-0.284-0.593-0.865-0.846-1.502-0.656z"></path>
        </symbol>
        <symbol id="icon-house" viewBox="0 0 34 32">
            <path d="M16.657 0.841c-0.756 0.053-1.597 0.368-2.103 0.782-0.237 0.197-1.156 1.071-2.563 2.444-1.59 1.551-4.797 4.652-7.576 7.333-2.55 2.457-3.338 3.279-3.561 3.713-0.539 1.064-0.532 2.458 0.020 3.423 0.375 0.657 1.176 1.531 1.636 1.794 0.677 0.375 1.761 0.414 2.412 0.085 0.125-0.059 0.237-0.112 0.25-0.112 0.007 0 0.020 1.814 0.020 4.028 0 3.857 0.007 4.054 0.138 4.547 0.072 0.283 0.184 0.598 0.243 0.71 0.059 0.105 0.145 0.256 0.191 0.335 0.184 0.335 0.907 0.973 1.36 1.202 0.841 0.427 0.526 0.414 9.797 0.414 6.781 0 8.503-0.020 8.877-0.085 1.308-0.25 2.484-1.386 2.779-2.681 0.046-0.177 0.072-1.846 0.072-4.383 0-3.87 0.007-4.094 0.118-4.061 1.084 0.335 1.741 0.296 2.589-0.131 0.578-0.296 1.518-1.327 1.754-1.932 0.388-0.999 0.414-1.754 0.099-2.628-0.335-0.933-0.039-0.618-6.328-6.702-0.92-0.887-1.925-1.86-2.241-2.168s-1.308-1.268-2.201-2.136c-0.9-0.867-1.827-1.768-2.070-2.004-1.406-1.373-1.86-1.636-3.055-1.768-0.217-0.020-0.513-0.033-0.657-0.020zM17.268 6.374c0.079 0.105 0.427 0.526 0.769 0.933 0.729 0.874 0.881 1.051 1.17 1.393 0.112 0.145 0.401 0.486 0.637 0.762 0.237 0.283 0.499 0.605 0.591 0.716 0.092 0.118 0.237 0.296 0.329 0.394 0.092 0.105 0.21 0.243 0.263 0.309 0.21 0.276 1.097 1.321 1.314 1.557 0.125 0.138 0.263 0.302 0.296 0.368 0.039 0.059 0.125 0.177 0.197 0.263 0.677 0.795 1.419 1.682 1.603 1.912 0.171 0.21 1.367 1.63 1.774 2.096 0.519 0.605 0.48 0.066 0.453 6.177-0.026 6.045 0.007 5.657-0.427 6.065-0.388 0.368-0.473 0.381-2.911 0.381h-2.234v-11.828h-8.279v11.906l-2.116-0.026-2.122-0.020-0.329-0.191c-0.414-0.243-0.591-0.401-0.828-0.723l-0.191-0.256v-10.927l0.71-0.821c0.388-0.447 1.163-1.367 1.722-2.030 1.078-1.288 2.438-2.904 2.497-2.957 0.039-0.039 0.861-0.999 1.071-1.255 0.164-0.204 0.368-0.44 1.511-1.794 0.46-0.545 1.143-1.354 1.511-1.794s0.716-0.802 0.775-0.808c0.053 0 0.164 0.085 0.243 0.197z"></path>
        </symbol>
        <symbol id="icon-public" viewBox="0 0 38 32">
            <path d="M5.881 2.049l-0.021 1.565-0.66 0.021c-0.365 0.007-0.709 0.056-0.758 0.098-0.063 0.049-0.091 0.274-0.091 0.73v0.66h3.719v-0.653c0-0.414-0.028-0.681-0.084-0.737s-0.323-0.084-0.737-0.084h-0.653v-3.158h-0.702l-0.014 1.558z"></path>
            <path d="M31.719 2.070v1.572l-1.439 0.042-0.021 0.716-0.021 0.723h3.656v-0.702c0-0.814 0.056-0.758-0.877-0.786l-0.561-0.021-0.021-1.565-0.014-1.558h-0.702v1.579z"></path>
            <path d="M4.4 5.874c-0.028 0.021-0.049 0.267-0.049 0.54v0.498l-0.618 0.295c-1.256 0.604-2.161 1.495-2.751 2.723-0.639 1.319-0.582 0.295-0.604 11.698l-0.014 10.091h37.53l-0.014-10.161-0.021-10.154-0.161-0.512c-0.526-1.712-1.684-3.046-3.27-3.768l-0.533-0.239v-1.060h-3.649v1.046l-0.519 0.239c-1.572 0.73-2.702 1.979-3.193 3.544-0.112 0.372-0.232 0.765-0.253 0.87l-0.035 0.197h-14.211l-0.154-0.618c-0.449-1.733-1.579-3.123-3.193-3.895l-0.611-0.295-0.042-1.053-1.796-0.021c-0.982-0.007-1.811 0.007-1.839 0.035zM31.895 11.684v0.632l-1.298 0.042v-0.589c0-0.372 0.035-0.618 0.084-0.667 0.063-0.063 0.274-0.084 0.653-0.070l0.561 0.021v0.632zM33.502 11.060c0.091 0.035 0.112 0.161 0.112 0.667v0.625h-1.263v-1.333h0.519c0.288 0 0.568 0.021 0.632 0.042zM6 11.719v0.597l-1.298 0.042v-0.589c0-0.323 0.021-0.611 0.049-0.639s0.323-0.035 0.653-0.028l0.596 0.021v0.597zM7.705 11.733l0.021 0.618h-1.27v-1.27l1.228 0.042 0.021 0.611zM6 13.439v0.632l-0.505 0.021c-0.751 0.028-0.793-0.007-0.793-0.73v-0.597l1.298 0.042v0.632zM7.719 13.368c0 0.709-0.042 0.751-0.758 0.723l-0.47-0.021-0.021-0.653-0.021-0.646h1.27v0.597zM31.93 13.403v0.632h-0.625c-0.73 0-0.709 0.021-0.709-0.744v-0.519h1.333v0.632zM33.6 13.382l-0.021 0.618-1.228 0.042v-1.27h1.27l-0.021 0.611zM26.232 14.821l0.014 1.881h-14.175v-3.789l14.14 0.035 0.021 1.874zM6 16.456v0.632h-1.263l-0.021-0.547c-0.028-0.737 0-0.765 0.716-0.737l0.568 0.021v0.632zM7.635 15.874c0.049 0.049 0.084 0.309 0.084 0.667v0.582h-1.263v-1.333h0.547c0.33 0 0.582 0.035 0.632 0.084zM31.916 16.435l0.021 0.618h-1.34v-0.547c0-0.344 0.035-0.582 0.084-0.632 0.063-0.063 0.274-0.084 0.653-0.070l0.561 0.021 0.021 0.611zM33.6 16.435l0.021 0.618h-1.27v-1.27l1.228 0.042 0.021 0.611zM31.895 18.14v0.632l-0.547 0.021c-0.351 0.014-0.589-0.007-0.653-0.063-0.105-0.084-0.147-1.116-0.049-1.214 0.028-0.028 0.323-0.035 0.653-0.028l0.596 0.021v0.632zM33.614 18.098c0 0.73 0.021 0.709-0.744 0.709h-0.519v-1.333h1.263v0.625zM6.021 18.154l-0.021 0.618h-1.263l-0.021-0.618-0.021-0.611h1.347l-0.021 0.611zM7.705 18.154l-0.021 0.618-1.228 0.042v-1.27h1.27l-0.021 0.611zM15.158 20.351v0.639l-1.284-0.042 0.014-0.561c0.007-0.302 0.035-0.582 0.049-0.611 0.021-0.028 0.302-0.056 0.632-0.056h0.589v0.632zM16.828 19.803c0.049 0.049 0.084 0.302 0.084 0.632v0.547h-1.333v-0.582c0-0.323 0.021-0.611 0.049-0.632 0.084-0.084 1.109-0.056 1.2 0.035zM22.667 20.351v0.632h-1.263v-0.582c0-0.323 0.021-0.611 0.049-0.632 0.021-0.028 0.309-0.049 0.632-0.049h0.582v0.632zM24.337 19.803c0.049 0.049 0.084 0.302 0.084 0.632v0.547h-1.333v-1.263h0.582c0.358 0 0.618 0.035 0.667 0.084zM31.895 21.158v0.632l-1.298 0.042v-0.596c0-0.723 0.028-0.751 0.772-0.723l0.526 0.014v0.632zM33.53 20.575c0.049 0.049 0.084 0.309 0.084 0.667v0.582h-1.263v-1.333h0.547c0.33 0 0.582 0.035 0.632 0.084zM6.021 21.172l-0.021 0.618-1.298 0.042v-0.589c0-0.323 0.021-0.611 0.049-0.632 0.021-0.028 0.323-0.049 0.667-0.049h0.625l-0.021 0.611zM7.705 21.207l0.021 0.618h-1.27v-1.27l1.228 0.042 0.021 0.611zM15.158 22.070v0.667h-0.54c-0.302 0-0.589-0.028-0.646-0.063-0.112-0.070-0.189-0.8-0.119-1.095 0.042-0.168 0.056-0.175 0.674-0.175h0.632v0.667zM16.898 21.986c0.028 0.737 0 0.765-0.716 0.737l-0.568-0.021-0.021-0.554c-0.014-0.309-0.007-0.596 0.014-0.653 0.028-0.077 0.182-0.091 0.653-0.077l0.618 0.021 0.021 0.547zM22.653 22.084l0.021 0.653h-0.547c-0.302 0-0.582-0.028-0.625-0.056-0.091-0.056-0.175-0.912-0.119-1.137 0.035-0.133 0.084-0.147 0.646-0.126l0.604 0.021 0.021 0.646zM24.407 21.986c0.028 0.737 0 0.765-0.716 0.737l-0.568-0.021-0.021-0.554c-0.014-0.309-0.007-0.596 0.014-0.653 0.028-0.077 0.182-0.091 0.653-0.077l0.618 0.021 0.021 0.547zM6 22.912v0.632l-0.547 0.021c-0.351 0.014-0.589-0.007-0.653-0.063-0.070-0.056-0.098-0.253-0.098-0.674v-0.589l1.298 0.042v0.632zM7.719 22.828c0 0.358-0.035 0.618-0.084 0.667s-0.302 0.084-0.632 0.084h-0.547v-1.333h1.263v0.582zM31.93 22.877v0.639l-1.298-0.042-0.021-0.618-0.021-0.611h1.34v0.632zM33.6 22.856l-0.021 0.618-1.228 0.042v-1.27h1.27l-0.021 0.611zM20.154 24.351c0.547 0.203 1.081 0.695 1.326 1.228l0.203 0.421v4.526h-5.13l0.021-2.302c0.021-2.281 0.021-2.295 0.197-2.646 0.582-1.186 2.063-1.719 3.382-1.228zM32.947 25.712c0.197 0.084 0.456 0.281 0.589 0.428 0.442 0.505 0.456 0.589 0.484 2.582l0.021 1.803h-3.663l0.021-1.846c0.021-1.726 0.028-1.853 0.175-2.119 0.477-0.884 1.509-1.256 2.372-0.849zM6.919 26c0.344 0.14 0.737 0.533 0.912 0.912 0.161 0.337 0.168 0.414 0.168 2.154v1.811h-3.579v-1.811c0-1.74 0.007-1.818 0.168-2.154 0.407-0.884 1.439-1.284 2.33-0.912z"></path>
        </symbol>
        <symbol id="icon-social" viewBox="0 0 31 32">
            <path d="M14.61 1.685c-0.576 0.607-1.346 1.403-1.703 1.772l-0.658 0.676h-4.384c-2.661 0-4.553 0.025-4.797 0.063-1.102 0.175-2.085 1.102-2.311 2.179-0.050 0.238-0.069 3.532-0.069 11.366 0 9.732 0.013 11.084 0.094 11.41 0.225 0.852 0.927 1.609 1.816 1.948 0.307 0.113 0.689 0.119 12.869 0.138 9.218 0.013 12.656 0 12.931-0.056 0.207-0.038 0.532-0.144 0.72-0.232 0.445-0.219 1.058-0.827 1.271-1.265l0.169-0.351-0.013-11.704-0.019-11.71-0.244-0.395c-0.445-0.72-1.19-1.209-2.010-1.328-0.257-0.031-2.248-0.063-4.766-0.063h-4.321l-1.766-1.778-1.766-1.772-1.046 1.102zM18.567 5.68c0.232 0.106 0.595 0.113 4.985 0.144l4.728 0.031 0.257 0.169c0.15 0.1 0.307 0.276 0.388 0.438l0.131 0.276v21.918l-0.138 0.276c-0.088 0.163-0.257 0.357-0.413 0.47l-0.276 0.188h-2.58l-0.088-0.313c-0.545-2.016-1.196-3.169-2.549-4.509-1.534-1.528-3.181-2.38-5.511-2.856-0.82-0.163-2.423-0.194-3.288-0.063-1.71 0.263-3.144 0.82-4.528 1.747-0.614 0.413-0.82 0.589-1.522 1.309-1.071 1.096-1.954 2.643-2.304 4.027-0.081 0.313-0.175 0.601-0.207 0.633-0.044 0.044-0.476 0.063-1.246 0.044-1.365-0.025-1.553-0.081-1.879-0.564l-0.182-0.269-0.019-10.921c-0.006-7.496 0.006-10.99 0.050-11.159 0.069-0.257 0.357-0.633 0.589-0.764 0.1-0.056 1.334-0.081 4.922-0.106l4.791-0.031 0.332-0.188c0.188-0.1 0.388-0.25 0.457-0.332 0.063-0.081 0.589-0.645 1.165-1.24l1.046-1.090 1.321 1.309c0.839 0.839 1.403 1.353 1.566 1.428z"></path>
            <path d="M14.873 10.27c-1.371 0.194-2.768 1.090-3.588 2.292-0.282 0.42-0.639 1.24-0.77 1.778-0.113 0.457-0.113 1.923 0 2.38 0.476 1.929 1.954 3.438 3.864 3.951 0.695 0.188 1.916 0.188 2.624 0 1.979-0.526 3.463-2.092 3.889-4.096 0.113-0.539 0.113-1.578 0-2.11-0.413-1.96-1.897-3.538-3.807-4.070-0.526-0.144-1.634-0.207-2.211-0.125z"></path>
        </symbol>
    </defs>
</svg>
